Another of my bloat reductions.  This was only available as a 4.2 GB download of a PAL DVD. This is a 1.2 GB AVI rip of that DVD with the 5.1 audio track intact and synced properly with the video.

Performers: Layne Staley - Jerry Cantrell - Mike Inez - Sean Kinney - Mike Starr

Style: Grunge, alternative metal

Track list:

1. Nutshell
2. Brother
3. No Excuses
4. Sludge Factory
5. Down In A Hole
6. Angry Chair
7. Rooster
8. Got Me Wrong
9. Heaven Beside You
10. Would?
11. Frogs
12. Over Now
13. Killer Is Me 

MEDIAINFO:

General
Complete name                    : AliceinChainsMTVUnpluggedDVDRip5.1.avi
Format                           : AVI
Format/Info                      : Audio Video Interleave
File size                        : 1.09 GiB
Duration                         : 1h 13mn
Overall bit rate                 : 2 119 Kbps
Writing application              : VirtualDubMod 1.5.10.2 (build 2540/release)
Writing library                  : VirtualDubMod build 2540/release

Video
ID                               : 0
Format                           : MPEG-4 Visual
Format profile                   : Advanced Simple@L5
Format settings, BVOP            : Yes
Format settings, QPel            : No
Format settings, GMC             : No warppoints
Format settings, Matrix          : Default (H.263)
Muxing mode                      : Packed bitstream
Codec ID                         : XVID
Codec ID/Hint                    : XviD
Duration                         : 1h 13mn
Bit rate                         : 1 662 Kbps
Width                            : 480 pixels
Height                           : 368 pixels
Display aspect ratio             : 4:3
Frame rate                       : 25.000 fps
Resolution                       : 8 bits
Colorimetry                      : 4:2:0
Scan type                        : Progressive
Bits/(Pixel*Frame)               : 0.376
Stream size                      : 873 MiB (78%)
Writing library                  : XviD 1.0.3 (UTC 2004-12-20)

Audio
ID                               : 1
Format                           : AC-3
Format/Info                      : Audio Coding 3
Format_Settings_ModeExtension    : CM (complete main)
Codec ID                         : 2000
Duration                         : 1h 13mn
Bit rate mode                    : Constant
Bit rate                         : 448 Kbps
Channel(s)                       : 6 channels
Channel positions                : Front: L C R, Side: L R, LFE
Sampling rate                    : 48.0 KHz
Stream size                      : 235 MiB (21%)
Alignment                        : Split accross interleaves
Interleave, duration             : 40 ms (1.00 video frame)
Interleave, preload duration     : 500 ms


